<mxfile host="app.diagrams.net" modified="2020-11-23T11:29:53.175Z" agent="5.0 (Macintosh; Intel Mac OS X 10_15_7) AppleWebKit/537.36 (KHTML, like Gecko) Chrome/86.0.4240.198 Safari/537.36" etag="O1HIaU254Fg6NCImT14b" version="13.9.2" type="github">
  <diagram id="Qp6c4uOwtNMaz_Fcxizk" name="Page-1">
    <mxGraphModel dx="1426" dy="826" grid="1" gridSize="10" guides="1" tooltips="1" connect="1" arrows="1" fold="1" page="1" pageScale="1" pageWidth="827" pageHeight="1169" math="0" shadow="0">
      <root>
        <mxCell id="0" />
        <mxCell id="1" parent="0" />
        <mxCell id="AyS_KU7_ljDKhC2KKYOm-3" value="" style="edgeStyle=orthogonalEdgeStyle;orthogonalLoop=1;jettySize=auto;html=1;curved=1;" edge="1" parent="1" source="AyS_KU7_ljDKhC2KKYOm-1" target="AyS_KU7_ljDKhC2KKYOm-2">
          <mxGeometry relative="1" as="geometry" />
        </mxCell>
        <mxCell id="AyS_KU7_ljDKhC2KKYOm-9" value="" style="edgeStyle=orthogonalEdgeStyle;curved=1;orthogonalLoop=1;jettySize=auto;html=1;" edge="1" parent="1" source="AyS_KU7_ljDKhC2KKYOm-1" target="AyS_KU7_ljDKhC2KKYOm-8">
          <mxGeometry relative="1" as="geometry" />
        </mxCell>
        <mxCell id="AyS_KU7_ljDKhC2KKYOm-13" value="" style="edgeStyle=orthogonalEdgeStyle;curved=1;orthogonalLoop=1;jettySize=auto;html=1;" edge="1" parent="1" source="AyS_KU7_ljDKhC2KKYOm-1" target="AyS_KU7_ljDKhC2KKYOm-12">
          <mxGeometry relative="1" as="geometry" />
        </mxCell>
        <mxCell id="AyS_KU7_ljDKhC2KKYOm-1" value="Stage 2:&lt;br&gt;Automation" style="ellipse;whiteSpace=wrap;html=1;" vertex="1" parent="1">
          <mxGeometry x="360" y="360" width="120" height="80" as="geometry" />
        </mxCell>
        <mxCell id="AyS_KU7_ljDKhC2KKYOm-5" value="" style="edgeStyle=orthogonalEdgeStyle;orthogonalLoop=1;jettySize=auto;html=1;curved=1;" edge="1" parent="1" source="AyS_KU7_ljDKhC2KKYOm-2" target="AyS_KU7_ljDKhC2KKYOm-4">
          <mxGeometry relative="1" as="geometry" />
        </mxCell>
        <mxCell id="AyS_KU7_ljDKhC2KKYOm-7" value="" style="edgeStyle=orthogonalEdgeStyle;orthogonalLoop=1;jettySize=auto;html=1;curved=1;" edge="1" parent="1" source="AyS_KU7_ljDKhC2KKYOm-2" target="AyS_KU7_ljDKhC2KKYOm-6">
          <mxGeometry relative="1" as="geometry" />
        </mxCell>
        <mxCell id="AyS_KU7_ljDKhC2KKYOm-2" value="Run Jenkins on Git" style="ellipse;whiteSpace=wrap;html=1;" vertex="1" parent="1">
          <mxGeometry x="590" y="370" width="120" height="80" as="geometry" />
        </mxCell>
        <mxCell id="AyS_KU7_ljDKhC2KKYOm-4" value="On commit to main" style="ellipse;whiteSpace=wrap;html=1;" vertex="1" parent="1">
          <mxGeometry x="650" y="520" width="120" height="80" as="geometry" />
        </mxCell>
        <mxCell id="AyS_KU7_ljDKhC2KKYOm-6" value="Test on PR (SG)" style="ellipse;whiteSpace=wrap;html=1;" vertex="1" parent="1">
          <mxGeometry x="560" y="200" width="120" height="80" as="geometry" />
        </mxCell>
        <mxCell id="AyS_KU7_ljDKhC2KKYOm-11" value="" style="edgeStyle=orthogonalEdgeStyle;curved=1;orthogonalLoop=1;jettySize=auto;html=1;" edge="1" parent="1" source="AyS_KU7_ljDKhC2KKYOm-8" target="AyS_KU7_ljDKhC2KKYOm-10">
          <mxGeometry relative="1" as="geometry" />
        </mxCell>
        <mxCell id="AyS_KU7_ljDKhC2KKYOm-15" value="" style="edgeStyle=orthogonalEdgeStyle;curved=1;orthogonalLoop=1;jettySize=auto;html=1;" edge="1" parent="1" source="AyS_KU7_ljDKhC2KKYOm-8" target="AyS_KU7_ljDKhC2KKYOm-14">
          <mxGeometry relative="1" as="geometry" />
        </mxCell>
        <mxCell id="AyS_KU7_ljDKhC2KKYOm-8" value="Container" style="ellipse;whiteSpace=wrap;html=1;" vertex="1" parent="1">
          <mxGeometry x="160" y="360" width="120" height="80" as="geometry" />
        </mxCell>
        <mxCell id="AyS_KU7_ljDKhC2KKYOm-10" value="Publish to ECR" style="ellipse;whiteSpace=wrap;html=1;" vertex="1" parent="1">
          <mxGeometry x="90" y="520" width="120" height="80" as="geometry" />
        </mxCell>
        <mxCell id="AyS_KU7_ljDKhC2KKYOm-17" value="" style="edgeStyle=orthogonalEdgeStyle;curved=1;orthogonalLoop=1;jettySize=auto;html=1;" edge="1" parent="1" source="AyS_KU7_ljDKhC2KKYOm-12" target="AyS_KU7_ljDKhC2KKYOm-16">
          <mxGeometry relative="1" as="geometry" />
        </mxCell>
        <mxCell id="AyS_KU7_ljDKhC2KKYOm-12" value="Infrastructure" style="ellipse;whiteSpace=wrap;html=1;" vertex="1" parent="1">
          <mxGeometry x="370" y="600" width="120" height="80" as="geometry" />
        </mxCell>
        <mxCell id="AyS_KU7_ljDKhC2KKYOm-14" value="Deploy to ECS" style="ellipse;whiteSpace=wrap;html=1;" vertex="1" parent="1">
          <mxGeometry x="110" y="200" width="120" height="80" as="geometry" />
        </mxCell>
        <mxCell id="AyS_KU7_ljDKhC2KKYOm-16" value="Infrastructure plan" style="shape=tape;whiteSpace=wrap;html=1;" vertex="1" parent="1">
          <mxGeometry x="340" y="730" width="120" height="100" as="geometry" />
        </mxCell>
      </root>
    </mxGraphModel>
  </diagram>
</mxfile>
